# xmcd CD database file
#
# Track frame offsets:
#	150
#	20767
#	38882
#
# Disc length: 766 seconds
#
# Revision: 3
# Processed by: cddbd v1.5PL3 Copyright (c) Steve Scherf et al.
# Submitted via: CDex 1.51
#
DISCID=1f02fc03
DTITLE=Squeeze - Satisfied CD-Single
DYEAR=1991
DGENRE=Rock
TTITLE0=Satisfied
TTITLE1=Happiness Is King
TTITLE2=Laughing In  My Sleep
EXTD=YEAR: 1991
EXTT0=
EXTT1=
EXTT2=
PLAYORDER=
